<?xml version="1.0" encoding="UTF-8"?>
<svg id="Layer_2" data-name="Layer 2" xmlns="http://www.w3.org/2000/svg" viewBox="0 0 74.23 20.37">
  <defs>
    <style>
      .cls-1 {
        fill: #1c75bc;
      }

      .cls-1, .cls-2 {
        stroke-width: 0px;
      }

      .cls-2 {
        fill: #1e3a8a;
      }
    </style>
  </defs>
  <g id="Layer_1-2" data-name="Layer 1">
    <g>
      <g>
        <g>
          <path class="cls-2" d="M21.52,13.43h9.3c.44,0,.74-.07.93-.22.19-.15.28-.39.28-.73s-.11-.6-.32-.74c-.21-.15-.67-.25-1.38-.3l-5.54-.12c-1.39-.04-2.33-.31-2.81-.79-.49-.49-.73-1.37-.73-2.66,0-.66.06-1.21.19-1.64.13-.43.34-.78.62-1.07.33-.32.78-.55,1.32-.69.54-.13,1.43-.2,2.65-.2h5.38l-.83,2.54h-4.07c-.68,0-1.12.07-1.34.2-.22.13-.33.37-.33.71s.1.57.3.72c.2.15.56.24,1.09.28l5.8.09c1.32.04,2.26.33,2.8.89.54.56.81,1.52.81,2.86,0,.8-.1,1.42-.3,1.86-.2.44-.54.81-1.01,1.12-.31.2-.73.34-1.27.42-.53.08-1.3.13-2.31.13h-9.24v-2.67Z"/>
          <path class="cls-2" d="M41.11,15.96h-3.43V4.41h5.21l4.12,7.21,4.19-7.21h5.14v11.55h-3.41V7.73l-4.78,8.23h-2.3l-4.74-8.23v8.23Z"/>
        </g>
        <polygon class="cls-1" points="31.43 6.8 32.25 4.27 34.79 4.27 34.79 6.8 31.43 6.8"/>
        <g>
          <polygon class="cls-2" points="65.88 12.7 61.54 4.41 57.69 4.41 63.79 15.96 68.07 15.96 72.59 7.48 68.77 7.48 65.88 12.7"/>
          <polygon class="cls-1" points="74.23 4.41 70.49 4.41 69.15 6.8 72.95 6.8 74.23 4.41"/>
        </g>
      </g>
      <polygon class="cls-2" points="11.29 15.7 6.68 7.47 6.68 15.7 3.53 15.7 3.53 4.15 8.41 4.15 12.43 11.36 16.39 4.37 8.82 0 0 5.09 0 15.27 8.82 20.37 17.64 15.27 17.64 8.47 13.54 15.7 11.29 15.7"/>
    </g>
  </g>
</svg>