<?xml version="1.0" encoding="UTF-8"?>
<svg id="Layer_2" data-name="Layer 2" xmlns="http://www.w3.org/2000/svg" viewBox="0 0 9.4 7.71">
  <defs>
    <style>
      .cls-1 {
        fill: #fff;
        fill-rule: evenodd;
        stroke-width: 0px;
      }
    </style>
  </defs>
  <g id="Layer_1-2" data-name="Layer 1">
    <path class="cls-1" d="M9.4,6.74v.22c-.04.11-.06.23-.12.32-.18.3-.45.43-.8.43-2.52,0-5.03,0-7.55,0-.03,0-.07,0-.1,0-.24-.01-.45-.11-.61-.29-.12-.13-.17-.29-.21-.46v-.22c.04-.17.11-.32.21-.47,1.07-1.67,2.14-3.34,3.21-5.02.19-.3.38-.61.59-.91C4.16.13,4.38.01,4.65,0c.36-.02.62.14.81.44,1.22,1.9,2.43,3.8,3.65,5.7.12.19.25.37.29.6ZM4.22,3.44h0c0,.33,0,.66,0,.99,0,.08.02.17.05.25.09.2.31.3.53.26.22-.05.37-.24.37-.49,0-.67,0-1.33,0-2,0-.18-.07-.33-.23-.42-.31-.19-.71.02-.72.38,0,.34,0,.69,0,1.04ZM4.09,6.08c0,.33.26.6.59.6.32,0,.6-.27.6-.59,0-.32-.27-.6-.59-.6-.33,0-.59.26-.6.59Z"/>
  </g>
</svg>